<svg viewBox="0 0 824 236" xmlns="http://www.w3.org/2000/svg">
<path d="M21.3523 1.72727L42.446 68.0341H43.2557L64.392 1.72727H84.8466L54.7614 89H30.983L0.855114 1.72727H21.3523ZM113.803 1.72727V89H95.3509V1.72727H113.803ZM205.987 32.2812H187.322C186.981 29.8665 186.285 27.7216 185.234 25.8466C184.183 23.9432 182.833 22.3239 181.185 20.9886C179.538 19.6534 177.634 18.6307 175.475 17.9205C173.344 17.2102 171.029 16.8551 168.529 16.8551C164.012 16.8551 160.077 17.9773 156.725 20.2216C153.373 22.4375 150.773 25.6761 148.927 29.9375C147.08 34.1705 146.157 39.3125 146.157 45.3636C146.157 51.5852 147.08 56.8125 148.927 61.0455C150.802 65.2784 153.415 68.4744 156.768 70.6335C160.12 72.7926 163.998 73.8722 168.401 73.8722C170.873 73.8722 173.16 73.5455 175.262 72.892C177.393 72.2386 179.282 71.2869 180.93 70.0369C182.577 68.7585 183.941 67.2102 185.021 65.392C186.129 63.5739 186.896 61.5 187.322 59.1705L205.987 59.2557C205.504 63.2614 204.296 67.125 202.364 70.8466C200.461 74.5398 197.89 77.8494 194.651 80.7756C191.441 83.6733 187.606 85.9744 183.146 87.679C178.714 89.3551 173.7 90.1932 168.103 90.1932C160.319 90.1932 153.359 88.4318 147.222 84.9091C141.114 81.3864 136.285 76.2869 132.734 69.6108C129.211 62.9347 127.45 54.8523 127.45 45.3636C127.45 35.8466 129.239 27.75 132.819 21.0739C136.398 14.3977 141.256 9.3125 147.393 5.81818C153.529 2.29545 160.433 0.534088 168.103 0.534088C173.16 0.534088 177.847 1.24432 182.165 2.66477C186.512 4.08523 190.362 6.15909 193.714 8.88636C197.066 11.5852 199.793 14.8949 201.896 18.8153C204.026 22.7358 205.39 27.2244 205.987 32.2812ZM215.894 16.9403V1.72727H287.57V16.9403H260.852V89H242.613V16.9403H215.894ZM375.589 45.3636C375.589 54.8807 373.785 62.9773 370.177 69.6534C366.597 76.3295 361.711 81.429 355.518 84.9517C349.353 88.446 342.421 90.1932 334.722 90.1932C326.967 90.1932 320.006 88.4318 313.842 84.9091C307.677 81.3864 302.805 76.2869 299.225 69.6108C295.646 62.9347 293.856 54.8523 293.856 45.3636C293.856 35.8466 295.646 27.75 299.225 21.0739C302.805 14.3977 307.677 9.3125 313.842 5.81818C320.006 2.29545 326.967 0.534088 334.722 0.534088C342.421 0.534088 349.353 2.29545 355.518 5.81818C361.711 9.3125 366.597 14.3977 370.177 21.0739C373.785 27.75 375.589 35.8466 375.589 45.3636ZM356.881 45.3636C356.881 39.1989 355.958 34 354.112 29.767C352.293 25.5341 349.722 22.3239 346.398 20.1364C343.075 17.9489 339.183 16.8551 334.722 16.8551C330.262 16.8551 326.37 17.9489 323.046 20.1364C319.722 22.3239 317.137 25.5341 315.29 29.767C313.472 34 312.563 39.1989 312.563 45.3636C312.563 51.5284 313.472 56.7273 315.29 60.9602C317.137 65.1932 319.722 68.4034 323.046 70.5909C326.37 72.7784 330.262 73.8722 334.722 73.8722C339.183 73.8722 343.075 72.7784 346.398 70.5909C349.722 68.4034 352.293 65.1932 354.112 60.9602C355.958 56.7273 356.881 51.5284 356.881 45.3636ZM389.257 89V1.72727H423.689C430.28 1.72727 435.905 2.90625 440.564 5.2642C445.251 7.59375 448.817 10.9034 451.26 15.1932C453.732 19.4545 454.967 24.4687 454.967 30.2358C454.967 36.0312 453.717 41.017 451.217 45.1932C448.717 49.3409 445.095 52.5227 440.351 54.7386C435.635 56.9545 429.925 58.0625 423.22 58.0625H400.166V43.233H420.237C423.76 43.233 426.686 42.75 429.016 41.7841C431.345 40.8182 433.078 39.3693 434.214 37.4375C435.379 35.5057 435.962 33.1051 435.962 30.2358C435.962 27.3381 435.379 24.8949 434.214 22.9062C433.078 20.9176 431.331 19.4119 428.973 18.3892C426.643 17.3381 423.703 16.8125 420.152 16.8125H407.709V89H389.257ZM436.388 49.2841L458.078 89H437.709L416.487 49.2841H436.388ZM486.459 1.72727V89H468.007V1.72727H486.459ZM581.839 45.3636C581.839 54.8807 580.035 62.9773 576.427 69.6534C572.847 76.3295 567.961 81.429 561.768 84.9517C555.603 88.446 548.671 90.1932 540.972 90.1932C533.217 90.1932 526.256 88.4318 520.092 84.9091C513.927 81.3864 509.055 76.2869 505.475 69.6108C501.896 62.9347 500.106 54.8523 500.106 45.3636C500.106 35.8466 501.896 27.75 505.475 21.0739C509.055 14.3977 513.927 9.3125 520.092 5.81818C526.256 2.29545 533.217 0.534088 540.972 0.534088C548.671 0.534088 555.603 2.29545 561.768 5.81818C567.961 9.3125 572.847 14.3977 576.427 21.0739C580.035 27.75 581.839 35.8466 581.839 45.3636ZM563.131 45.3636C563.131 39.1989 562.208 34 560.362 29.767C558.543 25.5341 555.972 22.3239 552.648 20.1364C549.325 17.9489 545.433 16.8551 540.972 16.8551C536.512 16.8551 532.62 17.9489 529.296 20.1364C525.972 22.3239 523.387 25.5341 521.54 29.767C519.722 34 518.813 39.1989 518.813 45.3636C518.813 51.5284 519.722 56.7273 521.54 60.9602C523.387 65.1932 525.972 68.4034 529.296 70.5909C532.62 72.7784 536.512 73.8722 540.972 73.8722C545.433 73.8722 549.325 72.7784 552.648 70.5909C555.972 68.4034 558.543 65.1932 560.362 60.9602C562.208 56.7273 563.131 51.5284 563.131 45.3636ZM82.5881 177.281H63.9233C63.5824 174.866 62.8864 172.722 61.8352 170.847C60.7841 168.943 59.4347 167.324 57.7869 165.989C56.1392 164.653 54.2358 163.631 52.0767 162.92C49.946 162.21 47.6307 161.855 45.1307 161.855C40.6136 161.855 36.679 162.977 33.3267 165.222C29.9744 167.437 27.375 170.676 25.5284 174.938C23.6818 179.17 22.7585 184.312 22.7585 190.364C22.7585 196.585 23.6818 201.812 25.5284 206.045C27.4034 210.278 30.017 213.474 33.3693 215.634C36.7216 217.793 40.5994 218.872 45.0028 218.872C47.4744 218.872 49.7614 218.545 51.8636 217.892C53.9943 217.239 55.8835 216.287 57.5312 215.037C59.179 213.759 60.5426 212.21 61.6222 210.392C62.7301 208.574 63.4972 206.5 63.9233 204.17L82.5881 204.256C82.1051 208.261 80.8977 212.125 78.9659 215.847C77.0625 219.54 74.4915 222.849 71.2528 225.776C68.0426 228.673 64.2074 230.974 59.7472 232.679C55.3153 234.355 50.3011 235.193 44.7045 235.193C36.9205 235.193 29.9602 233.432 23.8239 229.909C17.7159 226.386 12.8864 221.287 9.33523 214.611C5.8125 207.935 4.05114 199.852 4.05114 190.364C4.05114 180.847 5.84091 172.75 9.42046 166.074C13 159.398 17.858 154.312 23.9943 150.818C30.1307 147.295 37.0341 145.534 44.7045 145.534C49.7614 145.534 54.4489 146.244 58.767 147.665C63.1136 149.085 66.9631 151.159 70.3153 153.886C73.6676 156.585 76.3949 159.895 78.4972 163.815C80.6278 167.736 81.9915 172.224 82.5881 177.281ZM109.222 234H89.4489L119.577 146.727H143.355L173.44 234H153.668L131.807 166.67H131.125L109.222 234ZM107.986 199.696H154.69V214.099H107.986V199.696ZM256.846 177.281H238.181C237.84 174.866 237.144 172.722 236.093 170.847C235.042 168.943 233.692 167.324 232.045 165.989C230.397 164.653 228.494 163.631 226.335 162.92C224.204 162.21 221.888 161.855 219.388 161.855C214.871 161.855 210.937 162.977 207.585 165.222C204.232 167.437 201.633 170.676 199.786 174.938C197.94 179.17 197.016 184.312 197.016 190.364C197.016 196.585 197.94 201.812 199.786 206.045C201.661 210.278 204.275 213.474 207.627 215.634C210.979 217.793 214.857 218.872 219.261 218.872C221.732 218.872 224.019 218.545 226.121 217.892C228.252 217.239 230.141 216.287 231.789 215.037C233.437 213.759 234.8 212.21 235.88 210.392C236.988 208.574 237.755 206.5 238.181 204.17L256.846 204.256C256.363 208.261 255.156 212.125 253.224 215.847C251.32 219.54 248.749 222.849 245.511 225.776C242.3 228.673 238.465 230.974 234.005 232.679C229.573 234.355 224.559 235.193 218.962 235.193C211.178 235.193 204.218 233.432 198.082 229.909C191.974 226.386 187.144 221.287 183.593 214.611C180.07 207.935 178.309 199.852 178.309 190.364C178.309 180.847 180.099 172.75 183.678 166.074C187.258 159.398 192.116 154.312 198.252 150.818C204.388 147.295 211.292 145.534 218.962 145.534C224.019 145.534 228.707 146.244 233.025 147.665C237.371 149.085 241.221 151.159 244.573 153.886C247.925 156.585 250.653 159.895 252.755 163.815C254.886 167.736 256.249 172.224 256.846 177.281ZM347.08 177.281H328.415C328.075 174.866 327.379 172.722 326.327 170.847C325.276 168.943 323.927 167.324 322.279 165.989C320.631 164.653 318.728 163.631 316.569 162.92C314.438 162.21 312.123 161.855 309.623 161.855C305.106 161.855 301.171 162.977 297.819 165.222C294.467 167.437 291.867 170.676 290.021 174.938C288.174 179.17 287.251 184.312 287.251 190.364C287.251 196.585 288.174 201.812 290.021 206.045C291.896 210.278 294.509 213.474 297.862 215.634C301.214 217.793 305.092 218.872 309.495 218.872C311.967 218.872 314.254 218.545 316.356 217.892C318.487 217.239 320.376 216.287 322.023 215.037C323.671 213.759 325.035 212.21 326.114 210.392C327.222 208.574 327.989 206.5 328.415 204.17L347.08 204.256C346.597 208.261 345.39 212.125 343.458 215.847C341.555 219.54 338.984 222.849 335.745 225.776C332.535 228.673 328.7 230.974 324.239 232.679C319.808 234.355 314.793 235.193 309.197 235.193C301.413 235.193 294.452 233.432 288.316 229.909C282.208 226.386 277.379 221.287 273.827 214.611C270.305 207.935 268.543 199.852 268.543 190.364C268.543 180.847 270.333 172.75 273.913 166.074C277.492 159.398 282.35 154.312 288.487 150.818C294.623 147.295 301.526 145.534 309.197 145.534C314.254 145.534 318.941 146.244 323.259 147.665C327.606 149.085 331.455 151.159 334.808 153.886C338.16 156.585 340.887 159.895 342.989 163.815C345.12 167.736 346.484 172.224 347.08 177.281ZM378.763 146.727V234H360.312V146.727H378.763ZM474.143 190.364C474.143 199.881 472.339 207.977 468.732 214.653C465.152 221.33 460.266 226.429 454.072 229.952C447.908 233.446 440.976 235.193 433.277 235.193C425.521 235.193 418.561 233.432 412.396 229.909C406.232 226.386 401.359 221.287 397.78 214.611C394.2 207.935 392.411 199.852 392.411 190.364C392.411 180.847 394.2 172.75 397.78 166.074C401.359 159.398 406.232 154.312 412.396 150.818C418.561 147.295 425.521 145.534 433.277 145.534C440.976 145.534 447.908 147.295 454.072 150.818C460.266 154.312 465.152 159.398 468.732 166.074C472.339 172.75 474.143 180.847 474.143 190.364ZM455.436 190.364C455.436 184.199 454.513 179 452.666 174.767C450.848 170.534 448.277 167.324 444.953 165.136C441.629 162.949 437.737 161.855 433.277 161.855C428.817 161.855 424.925 162.949 421.601 165.136C418.277 167.324 415.692 170.534 413.845 174.767C412.027 179 411.118 184.199 411.118 190.364C411.118 196.528 412.027 201.727 413.845 205.96C415.692 210.193 418.277 213.403 421.601 215.591C424.925 217.778 428.817 218.872 433.277 218.872C437.737 218.872 441.629 217.778 444.953 215.591C448.277 213.403 450.848 210.193 452.666 205.96C454.513 201.727 455.436 196.528 455.436 190.364ZM487.812 234V146.727H522.244C528.863 146.727 534.502 147.991 539.161 150.52C543.82 153.02 547.371 156.5 549.815 160.96C552.286 165.392 553.522 170.506 553.522 176.301C553.522 182.097 552.272 187.21 549.772 191.642C547.272 196.074 543.65 199.526 538.906 201.997C534.19 204.469 528.479 205.705 521.775 205.705H499.829V190.918H518.792C522.343 190.918 525.269 190.307 527.57 189.085C529.9 187.835 531.633 186.116 532.769 183.929C533.934 181.713 534.516 179.17 534.516 176.301C534.516 173.403 533.934 170.875 532.769 168.716C531.633 166.528 529.9 164.838 527.57 163.645C525.241 162.423 522.286 161.812 518.707 161.812H506.263V234H487.812ZM565.507 234V146.727H599.939C606.558 146.727 612.197 147.991 616.857 150.52C621.516 153.02 625.067 156.5 627.51 160.96C629.982 165.392 631.217 170.506 631.217 176.301C631.217 182.097 629.967 187.21 627.467 191.642C624.967 196.074 621.345 199.526 616.601 201.997C611.885 204.469 606.175 205.705 599.47 205.705H577.524V190.918H596.487C600.038 190.918 602.964 190.307 605.266 189.085C607.595 187.835 609.328 186.116 610.464 183.929C611.629 181.713 612.212 179.17 612.212 176.301C612.212 173.403 611.629 170.875 610.464 168.716C609.328 166.528 607.595 164.838 605.266 163.645C602.936 162.423 599.982 161.812 596.402 161.812H583.959V234H565.507ZM723.401 190.364C723.401 199.881 721.597 207.977 717.989 214.653C714.41 221.33 709.523 226.429 703.33 229.952C697.165 233.446 690.234 235.193 682.535 235.193C674.779 235.193 667.819 233.432 661.654 229.909C655.489 226.386 650.617 221.287 647.038 214.611C643.458 207.935 641.668 199.852 641.668 190.364C641.668 180.847 643.458 172.75 647.038 166.074C650.617 159.398 655.489 154.312 661.654 150.818C667.819 147.295 674.779 145.534 682.535 145.534C690.234 145.534 697.165 147.295 703.33 150.818C709.523 154.312 714.41 159.398 717.989 166.074C721.597 172.75 723.401 180.847 723.401 190.364ZM704.694 190.364C704.694 184.199 703.771 179 701.924 174.767C700.106 170.534 697.535 167.324 694.211 165.136C690.887 162.949 686.995 161.855 682.535 161.855C678.075 161.855 674.183 162.949 670.859 165.136C667.535 167.324 664.95 170.534 663.103 174.767C661.285 179 660.376 184.199 660.376 190.364C660.376 196.528 661.285 201.727 663.103 205.96C664.95 210.193 667.535 213.403 670.859 215.591C674.183 217.778 678.075 218.872 682.535 218.872C686.995 218.872 690.887 217.778 694.211 215.591C697.535 213.403 700.106 210.193 701.924 205.96C703.771 201.727 704.694 196.528 704.694 190.364ZM737.07 234V146.727H755.521V218.787H792.936V234H737.07ZM823.607 146.727V234H805.156V146.727H823.607Z"/>
</svg>
